<svg width="15" height="20" viewBox="0 0 15 20" fill="none" xmlns="http://www.w3.org/2000/svg">
<path fill-rule="evenodd" clip-rule="evenodd" d="M13.5802 12.5V7.5C13.5802 4.04822 10.8166 1.25 7.40741 1.25C3.99824 1.25 1.23457 4.04822 1.23457 7.5V12.5C1.23457 15.9518 3.99824 18.75 7.40741 18.75C10.8166 18.75 13.5802 15.9518 13.5802 12.5ZM7.40741 0C3.31641 0 0 3.35786 0 7.5V12.5C0 16.6421 3.31641 20 7.40741 20C11.4984 20 14.8148 16.6421 14.8148 12.5V7.5C14.8148 3.35786 11.4984 0 7.40741 0Z" fill="#D9D9D9" fill-opacity="0.5"/>
<path fill-rule="evenodd" clip-rule="evenodd" d="M7.40739 4.44446C7.81649 4.44446 8.14813 4.72083 8.14813 5.06174L8.14813 7.53088C8.14813 7.87179 7.81649 8.14816 7.40739 8.14816C6.99829 8.14816 6.66665 7.87179 6.66665 7.53088L6.66665 5.06174C6.66665 4.72083 6.99829 4.44446 7.40739 4.44446Z" fill="#D9D9D9" fill-opacity="0.5"/>
</svg>
